<svg width="215" height="36" viewBox="0 0 215 36" fill="none" xmlns="http://www.w3.org/2000/svg">
<g clip-path="url(#clip0_201_2)">
<path d="M23.7 35.52C22.4137 35.555 21.1397 35.2611 19.9988 34.6661C18.8578 34.0711 17.8876 33.1948 17.18 32.12C14.9527 34.203 12.0475 35.4105 9 35.52C3.54 35.52 0.58 31.67 1.58 26.15C2.34 22 5.74 17.84 6.69 14.5C4.85 13.38 2.12 12.6 0.84 14.89L0 14.38C0.67 11.87 2.29 10.2 4.63 10.2C6.97 10.2 8.7 11.59 10.93 10.31H12.71C11.76 15.31 9.36 19.31 8.08 26.31C7.3 30.6 8.75 32.55 11.2 32.55C13.0168 32.3212 14.6843 31.4269 15.88 30.04C14.902 27.5951 14.4095 24.9832 14.43 22.35C14.43 16.27 17.22 9.86 21.9 9.86C24.3 9.86 26.08 11.53 26.08 15.49C26.08 19.45 23.68 25.58 20.62 29.43C20.7853 30.3467 21.2653 31.177 21.9773 31.7776C22.6893 32.3782 23.5886 32.7115 24.52 32.72C28.98 32.72 32.1 26.03 32.1 19.84C32.1 13.65 29.42 13.93 29.65 11.84C29.6909 11.3145 29.9377 10.8264 30.3365 10.4819C30.7354 10.1373 31.2541 9.96414 31.78 10C33.17 10 35 11.76 35 18.9C35 28 30.16 35.52 23.7 35.52ZM22.69 13C21.3 13 19.96 18.13 19.79 23.43C19.7251 24.5632 19.7451 25.6998 19.85 26.83C21.9503 23.3543 23.2295 19.445 23.59 15.4C23.58 13.6 23.25 13 22.69 13ZM44.16 35.29C43.5768 35.3504 42.9875 35.2819 42.4337 35.0892C41.8799 34.8966 41.3753 34.5846 40.9555 34.1753C40.5357 33.766 40.211 33.2694 40.0044 32.7207C39.7978 32.172 39.7144 31.5845 39.76 31C39.76 28.55 42.94 16.34 42.94 14.33C42.94 13.38 42.72 12.82 41.88 12.82C40.9406 12.9742 40.0675 13.4021 39.37 14.05V12.32C40.818 10.9824 42.6998 10.2119 44.67 10.15C45.2567 10.0973 45.8479 10.1732 46.4022 10.3725C46.9566 10.5717 47.4608 10.8895 47.8797 11.3037C48.2987 11.7178 48.6222 12.2184 48.8278 12.7704C49.0333 13.3225 49.116 13.9127 49.07 14.5C49.07 16.95 45.89 29.11 45.89 31.11C45.89 32.06 46.11 32.62 46.95 32.62C47.8767 32.4631 48.7439 32.0589 49.46 31.45V33.12C48.0175 34.4662 46.1324 35.238 44.16 35.29ZM48.06 -3.01853e-06C48.4958 -0.0141021 48.9295 0.0669813 49.3308 0.2376C49.7321 0.408218 50.0914 0.664269 50.3836 0.987919C50.6759 1.31157 50.894 1.69504 51.0229 2.11161C51.1518 2.52819 51.1884 2.96786 51.13 3.4C51.0239 4.32171 50.5877 5.17384 49.902 5.79886C49.2164 6.42388 48.3276 6.7795 47.4 6.8C46.9642 6.8141 46.5305 6.73301 46.1292 6.56239C45.7279 6.39178 45.3686 6.13572 45.0764 5.81208C44.7841 5.48843 44.566 5.10496 44.4371 4.68838C44.3082 4.27181 44.2716 3.83214 44.33 3.4C44.4361 2.47829 44.8723 1.62615 45.558 1.00114C46.2436 0.376119 47.1324 0.0204897 48.06 -3.01853e-06ZM60.44 30.05C60.16 31.56 60.33 32.61 61.39 32.61C62.3201 32.4641 63.1902 32.0585 63.9 31.44L64 33.12C62.552 34.4576 60.6702 35.2281 58.7 35.29C55.24 35.29 53.9 32.78 54.41 29.66L57.81 10.31C58.94 3.85 58.55 3 55.09 3L55.31 1.44L65.74 0.059997L60.44 30.05ZM89.77 30C89.49 31.51 89.6 32.62 90.72 32.62C91.6518 32.4425 92.5187 32.0176 93.23 31.39V33.12C91.7916 34.4726 89.9039 35.2455 87.93 35.29C86.9324 35.3629 85.9437 35.0593 85.1588 34.4392C84.3739 33.8191 83.8499 32.9274 83.69 31.94C82.8541 33.0472 81.7763 33.9489 80.5389 34.5763C79.3015 35.2036 77.9372 35.5401 76.55 35.56C69.92 35.56 67.13 29.71 68.41 22.68C69.69 15.65 75.66 9.91 82.41 9.91C84.0078 9.8768 85.5877 10.252 87 11L87.17 10.11C88.49 3.23 87.88 3 84.42 3L84.59 1.44L95.07 0.059997L89.77 30ZM82.58 12.43C78.73 12.43 76.17 17 75.16 22.63C74.1 28.54 74.77 32.63 78.39 32.63C80.84 32.63 83.63 29.63 84.47 25.05L86.53 13.45C85.3422 12.7293 83.9683 12.3745 82.58 12.43ZM107.39 35.57C99.64 35.57 97.52 29.99 98.47 24.64L101 10.31C102.17 3.84 101.78 2.95 98.32 2.95L98.54 1.39L109 0.059997L106.88 12.21C108.508 10.7948 110.574 9.98578 112.73 9.92C119.48 9.92 122.65 15.66 121.43 22.69C120.21 29.72 114 35.57 107.39 35.57ZM111.01 12.57C109.883 12.5933 108.793 12.9725 107.895 13.6533C106.997 14.334 106.337 15.2815 106.01 16.36L104.45 25.36C103.5 30.71 105.4 32.89 107.8 32.89C111.31 32.89 113.49 28.99 114.66 22.58C115.7 16.84 114.75 12.6 111 12.6L111.01 12.57ZM132 25.93C132 30.22 134.06 32.51 138 32.51C140 32.51 142.91 31.12 144.75 29.28L145.53 31.06C144.209 32.4607 142.62 33.5824 140.858 34.3587C139.095 35.1351 137.195 35.5503 135.27 35.58C129.42 35.58 125.46 31.23 125.46 25.32C125.46 16.57 132.71 9.93 139.68 9.93C143.92 9.93 146.31 12.27 146.31 15C146.26 19.24 142.24 24 132 25.93ZM139.19 12.49C136.01 12.49 132.95 17.12 132.11 23.75C138.52 22.19 141.25 17.84 141.31 15.05C141.3 13.49 140.57 12.49 139.18 12.49H139.19ZM169.06 35.29C168.062 35.3629 167.074 35.0593 166.289 34.4392C165.504 33.8191 164.98 32.9274 164.82 31.94C164.015 33.0465 162.964 33.95 161.748 34.5784C160.533 35.2069 159.188 35.543 157.82 35.56C151.3 35.56 148.51 29.71 149.82 22.68C151.13 15.65 157 9.92 163.77 9.92C165.206 9.91232 166.628 10.1982 167.95 10.76H174.31L170.9 30C170.62 31.51 170.73 32.62 171.85 32.62C172.782 32.4425 173.649 32.0176 174.36 31.39V33.12C172.922 34.4726 171.034 35.2455 169.06 35.29ZM163.93 12.43C160.19 12.43 157.57 17 156.57 22.63C155.51 28.54 156.24 32.63 159.57 32.63C162.13 32.63 164.87 29.51 165.65 25.05L167.71 13.45C166.589 12.7292 165.272 12.3729 163.94 12.43H163.93ZM193.82 16.5C192.31 16.5 191.92 15.33 191.48 14.1C191.332 13.4801 190.972 12.9313 190.463 12.548C189.954 12.1647 189.327 11.9709 188.69 12C187.863 11.9565 187.05 12.2238 186.409 12.7492C185.769 13.2746 185.349 14.0204 185.23 14.84C185.06 16.35 186.18 17.63 188.3 19.47L191.14 21.81C192.199 22.612 193.018 23.6879 193.51 24.9215C194.001 26.1552 194.147 27.4997 193.93 28.81C193.21 32.99 189.75 35.56 185.12 35.56C179.54 35.56 175.98 32.27 176.37 30.04C176.46 29.4533 176.756 28.9178 177.205 28.5294C177.654 28.141 178.226 27.925 178.82 27.92C180.27 27.92 180.82 29.03 181.27 30.48C181.558 31.3126 182.114 32.0267 182.85 32.5113C183.586 32.9959 184.461 33.224 185.34 33.16C186.209 33.2009 187.061 32.9159 187.731 32.361C188.401 31.8061 188.839 31.0212 188.96 30.16C189.18 28.16 187.96 26.93 185.67 24.86L182.88 22.41C181.896 21.6574 181.13 20.6574 180.659 19.512C180.189 18.3665 180.03 17.1167 180.2 15.89C180.7 13.21 183.2 9.89 188.95 9.89C193.41 9.89 196.2 12.4 195.95 14.41C195.923 14.9623 195.688 15.484 195.294 15.8713C194.899 16.2586 194.373 16.4831 193.82 16.5ZM214.23 13H208.82L206.2 27.82C205.64 30.89 206.09 32.28 207.76 32.28C208.65 32.28 210.05 31.78 212.05 29.72L212.16 31.89C211.255 32.963 210.129 33.8277 208.858 34.4249C207.588 35.0221 206.204 35.3377 204.8 35.35C201.01 35.35 199.11 32.67 200.01 27.71L202.63 13H198.4L198.73 10.71H203L204.12 4.08H210.36L209.19 10.71H214.6L214.23 13Z" fill="white"/>
</g>
<defs>
<clipPath id="clip0_201_2">
<rect width="214.62" height="35.57" fill="white"/>
</clipPath>
</defs>
</svg>
